<?xml version="1.0" standalone="no"?>
<!DOCTYPE svg PUBLIC "-//W3C//DTD SVG 20010904//EN"
 "http://www.w3.org/TR/2001/REC-SVG-20010904/DTD/svg10.dtd">
<svg version="1.0" xmlns="http://www.w3.org/2000/svg"
 width="1000.000000pt" height="1000.000000pt" viewBox="0 0 1000.000000 1000.000000"
 preserveAspectRatio="xMidYMid meet">
<metadata>
Created by potrace 1.11, written by Peter Selinger 2001-2013
</metadata>
<g transform="translate(0.000000,1000.000000) scale(0.100000,-0.100000)"
fill="#000000" stroke="none">
<path d="M4779 9056 c-46 -31 -74 -92 -66 -146 6 -49 45 -103 86 -119 l30 -13
1 -256 0 -257 115 -115 115 -115 0 -120 0 -120 -112 -112 c-100 -100 -112
-116 -114 -150 -1 -21 -2 -40 -3 -42 -1 -2 -23 18 -51 45 l-50 49 0 172 c0
168 1 173 23 184 34 18 46 40 47 81 0 28 -7 42 -31 62 -35 30 -58 32 -98 11
-59 -30 -59 -120 0 -151 l29 -15 0 -149 c0 -83 -3 -150 -6 -150 -4 0 -47 41
-95 91 l-89 92 0 278 0 277 34 21 c110 68 50 253 -77 237 -130 -15 -165 -168
-56 -241 l40 -26 -2 -165 -1 -166 -30 28 c-63 60 -169 167 -192 195 -25 29
-25 31 -25 233 l0 203 45 44 c39 38 50 44 89 44 60 1 95 33 95 87 0 80 -90
119 -147 62 -22 -22 -25 -32 -21 -74 5 -47 4 -50 -44 -97 l-48 -47 0 -200 c0
-198 0 -199 -20 -181 -19 17 -20 31 -20 266 0 247 0 248 23 260 34 18 46 40
47 81 0 28 -7 42 -31 62 -35 30 -58 32 -98 11 -59 -30 -59 -120 0 -151 l29
-15 0 -124 c0 -69 -3 -125 -6 -125 -3 0 -26 20 -50 45 -30 31 -55 47 -76 50
-20 3 -40 15 -55 34 -29 37 -72 47 -111 27 -57 -29 -65 -107 -15 -146 43 -34
111 -20 132 26 19 42 58 32 123 -33 l58 -57 0 -105 0 -105 174 -176 174 -175
1 -100 2 -100 192 -195 192 -195 -3 -535 -2 -534 -90 89 -90 90 0 277 c0 176
4 279 10 283 22 14 50 86 50 131 0 96 -78 174 -175 174 -132 0 -216 -140 -155
-260 29 -56 72 -83 142 -88 l58 -4 0 -172 0 -171 -175 175 -175 175 0 177 0
176 33 11 c40 14 81 54 97 96 27 72 -21 171 -95 195 -34 11 -35 13 -35 63 l0
51 -205 206 c-180 180 -205 209 -205 237 0 23 6 33 21 38 27 9 53 66 45 99
-22 88 -150 88 -172 0 -9 -36 19 -92 51 -100 22 -5 25 -12 25 -48 0 -40 4 -45
205 -246 202 -202 205 -205 205 -247 0 -38 -3 -43 -27 -49 -16 -4 -43 -20 -60
-37 l-33 -31 -79 77 -79 77 -94 0 -93 0 -88 88 -87 87 0 155 0 155 -82 82
c-81 81 -81 82 -68 112 18 45 8 114 -24 155 -51 68 -160 75 -222 15 -86 -83
-60 -212 51 -255 39 -14 52 -15 87 -5 l41 13 73 -73 74 -73 0 -151 0 -150 113
-113 112 -112 90 0 90 0 83 -83 c47 -47 82 -91 82 -102 0 -28 34 -80 69 -106
l31 -23 0 -195 0 -195 210 -211 210 -211 0 -46 c0 -45 1 -47 125 -173 l125
-127 0 -214 c0 -136 -4 -214 -10 -214 -6 0 -10 -53 -10 -140 l0 -140 -55 0
-55 0 0 140 c0 87 -4 140 -10 140 -5 0 -10 21 -10 46 0 42 -5 51 -45 92 l-45
45 0 101 0 101 -78 78 -79 78 4 47 c4 38 1 51 -16 69 -47 49 -115 41 -144 -18
-34 -70 21 -138 101 -124 35 5 40 2 110 -68 l72 -74 0 -87 c0 -62 -4 -86 -12
-87 -7 0 -35 -1 -62 -1 l-49 0 -149 149 -148 148 0 135 0 136 -45 44 -45 44 0
245 0 246 -161 161 c-156 156 -160 161 -148 187 18 41 1 88 -41 111 -33 17
-38 17 -73 3 -60 -26 -74 -85 -31 -136 22 -26 33 -31 72 -31 45 0 46 0 194
-147 l148 -148 0 -224 c0 -159 -3 -222 -11 -214 -6 6 -11 81 -12 196 l-2 185
-146 146 -146 146 -78 0 c-72 0 -81 2 -107 27 l-27 26 29 34 c34 38 37 61 15
102 -45 88 -185 33 -161 -63 4 -15 16 -34 28 -44 12 -9 47 -41 78 -69 l57 -53
79 0 79 0 132 -132 133 -133 0 -159 c0 -140 -2 -157 -15 -146 -12 10 -15 40
-15 149 l0 136 -118 118 -117 117 -95 0 -95 0 -123 123 c-118 118 -143 157
-103 157 25 0 78 44 97 83 21 39 14 105 -15 145 -11 16 -40 37 -63 46 -145 58
-265 -121 -156 -233 17 -18 44 -35 60 -38 22 -4 28 -11 28 -32 0 -20 29 -55
128 -154 l129 -128 98 -4 99 -4 108 -108 108 -108 0 -105 0 -105 -167 3 -168
3 -89 89 c-87 86 -89 90 -76 114 19 37 15 110 -8 148 -28 46 -75 70 -136 73
l-52 1 -172 173 -172 172 0 208 0 209 24 6 c36 9 84 62 95 104 16 59 -1 111
-50 155 -37 33 -48 37 -93 37 -159 0 -217 -201 -81 -281 l35 -21 0 -221 0
-222 182 -182 c171 -171 181 -183 166 -200 -9 -10 -20 -30 -23 -45 -7 -27 -9
-28 -76 -28 l-69 0 -250 250 -250 250 -112 0 -113 0 -15 33 c-9 19 -30 39 -53
51 -53 25 -107 10 -136 -38 -33 -53 -28 -102 15 -142 49 -47 102 -48 148 -1
18 17 35 37 37 43 2 7 45 13 109 17 l105 5 255 -254 255 -254 70 0 70 -1 20
-42 c30 -64 76 -89 153 -85 l62 3 98 -97 99 -98 159 0 159 0 117 -117 118
-118 0 -135 0 -135 97 -97 98 -98 -95 0 -95 0 -132 133 -132 132 11 40 c23 85
-21 163 -103 185 -137 37 -237 -137 -138 -238 45 -45 98 -60 149 -39 l39 15
139 -139 139 -139 134 0 135 0 39 -40 c38 -39 40 -40 110 -40 67 0 73 -2 103
-33 22 -23 32 -43 32 -65 0 -18 -4 -32 -10 -32 -6 0 -10 -53 -10 -140 l0 -139
-72 -3 -73 -3 -3 -77 -3 -78 -144 0 c-105 0 -144 -3 -147 -12 -4 -10 -10 -10
-31 -1 -25 12 -27 17 -27 76 l0 63 -55 54 -55 54 0 116 0 115 -82 82 -83 81
-75 7 c-136 11 -141 11 -167 -19 -32 -38 -30 -80 6 -117 20 -20 39 -29 61 -29
43 0 90 47 90 89 0 29 2 31 38 31 33 0 45 -8 110 -73 l72 -72 0 -83 c0 -45 -4
-82 -8 -82 -5 0 -19 11 -32 25 -23 24 -27 25 -164 25 l-141 0 -143 143 -142
142 0 55 0 56 -75 74 -75 74 0 69 c0 61 3 70 26 90 58 51 18 151 -60 151 -78
0 -116 -94 -61 -149 13 -14 31 -25 40 -25 12 0 15 -14 15 -71 l0 -71 80 -82
c63 -65 80 -89 80 -111 0 -28 -5 -25 -95 65 l-95 95 0 68 0 68 -55 58 c-38 40
-55 66 -55 84 0 15 5 27 10 27 6 0 22 11 35 25 56 55 16 145 -63 145 -83 0
-117 -95 -54 -151 22 -19 32 -38 32 -57 0 -20 14 -42 55 -82 l55 -54 0 -63 c0
-56 -2 -63 -20 -63 -18 0 -20 7 -20 57 l0 57 -80 82 -80 82 0 108 0 109 -245
245 c-199 198 -245 250 -245 272 0 18 7 29 20 33 29 9 60 54 60 87 0 40 -48
88 -89 88 -17 0 -42 -10 -58 -24 -22 -19 -28 -32 -28 -66 0 -36 6 -47 33 -70
25 -20 32 -34 32 -61 0 -31 20 -54 245 -279 l245 -245 0 -107 0 -107 81 -79
80 -80 -4 -48 c-3 -46 -6 -49 -33 -52 -25 -2 -45 13 -156 124 l-128 127 0 65
0 64 -81 84 c-81 82 -82 84 -69 114 18 43 7 108 -23 138 -33 32 -101 41 -147
17 l-33 -17 -219 219 c-154 154 -216 222 -211 233 3 8 8 32 11 52 9 83 -98
122 -153 56 -21 -25 -25 -38 -21 -62 10 -47 46 -78 92 -78 37 0 48 -9 260
-223 l221 -222 -5 -51 c-4 -46 -2 -53 31 -88 33 -36 40 -39 92 -40 56 -1 57
-1 125 -69 66 -65 68 -70 72 -121 l3 -54 -42 0 -43 0 0 55 c0 50 -3 57 -40 95
-36 37 -43 40 -92 40 -52 0 -55 2 -111 58 -55 56 -57 59 -57 112 l0 55 -143
143 -142 142 -105 0 -105 1 -20 32 c-40 63 -124 66 -179 6 -25 -28 -28 -37
-23 -78 13 -118 165 -140 213 -31 l18 40 91 0 90 0 138 -138 137 -137 0 -55
c0 -55 1 -56 63 -118 62 -61 63 -62 118 -62 49 0 58 -4 87 -33 27 -28 32 -41
32 -80 l0 -47 -208 0 -207 0 -99 99 -98 98 16 31 c20 39 21 104 1 142 -58 111
-225 95 -266 -27 -33 -100 69 -212 167 -184 30 8 35 4 140 -100 l109 -109 285
0 286 0 74 -75 74 -75 -155 0 -155 0 -44 45 -44 45 -117 0 -117 0 -64 -60
c-34 -33 -70 -60 -79 -60 -8 0 -25 10 -37 23 -17 18 -21 31 -16 55 8 37 -11
89 -37 102 -10 6 -33 10 -52 10 -27 0 -41 -7 -61 -31 -30 -35 -32 -58 -11 -98
17 -34 59 -51 97 -40 21 5 32 1 54 -22 21 -21 37 -29 64 -29 30 0 44 9 90 55
l54 55 114 0 113 0 40 -40 41 -40 176 0 c131 -1 182 -4 195 -14 9 -7 17 -16
17 -20 0 -3 -99 -6 -219 -6 l-220 0 -21 30 c-29 41 -70 60 -127 60 -61 0 -106
-27 -133 -80 l-20 -40 -128 0 -127 0 -132 133 c-123 123 -131 133 -117 151 7
11 14 30 14 42 0 81 -86 122 -147 70 -22 -19 -28 -32 -28 -65 0 -51 26 -79 81
-87 34 -6 57 -25 180 -146 l140 -139 130 2 129 2 10 -29 c28 -78 75 -114 149
-114 76 0 134 43 151 113 l7 27 326 0 327 0 255 -255 256 -255 145 0 144 0 78
-78 77 -77 0 -63 c0 -57 3 -67 29 -93 22 -21 39 -29 65 -29 20 0 36 -4 36 -10
0 -6 55 -10 145 -10 l146 0 -3 -57 -3 -58 -60 0 c-33 -1 -160 -5 -283 -10
l-223 -8 -34 33 c-33 32 -36 33 -115 31 -107 -3 -170 7 -170 26 0 25 -64 81
-106 92 -28 7 -51 7 -78 0 l-39 -11 -211 211 c-170 169 -216 211 -238 211 -19
0 -29 6 -33 23 -18 57 -81 97 -153 97 -41 0 -55 -5 -89 -35 -22 -19 -44 -46
-47 -60 l-6 -25 -253 0 -252 0 -195 195 c-107 107 -202 206 -210 221 -34 60
-125 91 -190 64 -44 -18 -87 -72 -95 -119 -9 -55 26 -127 74 -155 73 -42 158
-21 207 52 l21 30 179 -179 c179 -179 179 -179 224 -179 l45 0 -42 -42 c-41
-40 -44 -42 -100 -39 l-58 2 -151 150 -150 149 -140 0 -139 0 0 39 c0 106
-151 129 -171 27 -8 -44 2 -73 32 -92 20 -14 56 -16 216 -15 l193 2 150 -151
150 -150 70 0 69 0 62 61 c59 59 62 60 109 57 l48 -3 -114 -112 c-111 -110
-115 -113 -158 -113 -45 0 -45 0 -236 190 l-191 190 -217 0 c-181 0 -217 2
-217 14 0 24 -50 56 -87 56 -74 0 -110 -88 -59 -146 18 -21 32 -28 61 -28 32
0 44 6 70 37 l32 37 199 0 199 0 175 -175 c148 -149 171 -175 149 -175 -19 0
-61 36 -179 155 l-154 155 -111 0 -111 0 -48 -49 c-42 -43 -53 -49 -78 -44
-82 16 -140 -96 -79 -151 10 -9 35 -19 54 -23 31 -5 40 -1 67 25 31 31 39 72
20 102 -7 11 2 27 37 63 l47 47 90 0 89 0 134 -132 c73 -73 133 -136 133 -140
0 -4 -21 -8 -47 -8 -43 0 -50 3 -65 30 -32 56 -109 63 -148 13 -29 -37 -26
-79 9 -114 42 -41 84 -40 127 6 l33 35 183 0 183 0 130 129 130 129 122 6 122
7 7 -25 c3 -14 24 -41 45 -61 34 -30 46 -35 90 -35 28 0 60 5 72 11 33 17 77
61 77 76 0 8 7 16 16 20 11 4 74 -52 219 -197 l203 -203 -14 -33 c-8 -18 -14
-43 -14 -56 0 -37 38 -102 75 -127 29 -20 44 -23 90 -19 65 5 100 28 128 81
l19 37 107 0 107 0 34 -35 34 -35 152 0 c91 0 155 -4 159 -10 4 -6 63 -10 146
-10 l139 0 0 -55 0 -55 -139 0 c-83 0 -142 -4 -146 -10 -4 -6 -164 -10 -448
-10 l-442 0 -144 145 -144 145 -163 0 c-130 0 -164 3 -164 13 0 26 -45 57 -84
57 -50 0 -86 -36 -86 -85 0 -76 92 -114 145 -60 14 13 25 29 25 35 0 6 54 10
156 10 l155 0 125 -122 c68 -67 124 -125 124 -130 0 -4 -15 -8 -33 -8 -27 0
-45 13 -111 80 l-80 80 -88 0 c-86 0 -88 0 -102 29 -17 33 -34 41 -82 41 -63
0 -102 -67 -72 -123 17 -32 39 -46 75 -47 45 0 62 9 79 41 14 28 16 29 97 29
l83 0 64 -65 64 -65 -369 0 -370 0 -110 110 -110 110 -425 0 -425 0 3 49 c13
176 -213 253 -321 110 -43 -58 -39 -152 9 -215 50 -65 170 -83 235 -35 28 21
36 21 464 21 l436 0 111 -110 c104 -104 112 -110 151 -110 l41 0 -52 -52 -51
-53 -176 3 c-141 2 -175 6 -175 17 0 22 -50 55 -82 55 -41 0 -88 -48 -88 -90
0 -43 47 -90 91 -90 23 0 40 9 65 35 l33 35 148 0 148 0 -90 -90 -90 -90 -285
0 -285 0 -10 22 c-14 31 -72 68 -107 68 -42 0 -94 -25 -113 -54 -75 -115 56
-257 172 -186 18 10 39 33 48 50 l16 30 182 0 182 0 -120 -120 -120 -120 -220
0 -221 0 -47 47 c-41 40 -47 51 -42 74 11 50 -36 108 -88 109 -40 0 -87 -49
-87 -90 0 -62 90 -116 128 -78 10 10 24 1 65 -40 l53 -52 214 0 213 0 -23 -25
c-21 -22 -32 -25 -94 -25 l-71 0 -130 -130 c-104 -105 -134 -130 -151 -125
-31 7 -80 -13 -98 -40 -23 -35 -20 -69 10 -104 35 -42 84 -43 125 -2 31 31 35
53 19 97 -10 25 -5 33 107 145 l118 119 75 0 75 0 180 180 180 180 83 0 84 0
201 195 200 195 536 0 536 0 -90 -90 -90 -90 -278 0 -278 0 -33 25 c-62 48
-152 42 -218 -13 -78 -66 -78 -198 0 -264 119 -100 292 -23 292 130 l0 52 170
0 c94 0 170 -3 170 -8 0 -4 -75 -83 -168 -175 l-167 -167 -182 0 -181 0 -23
47 c-58 115 -217 112 -274 -5 -19 -40 -22 -42 -65 -42 l-45 0 -205 -205 c-184
-184 -208 -205 -238 -205 -25 0 -40 8 -59 30 -20 25 -32 30 -68 30 -35 0 -48
-5 -64 -26 -48 -61 -10 -144 67 -144 39 0 82 31 82 58 0 7 3 12 8 13 4 0 24 1
45 3 36 3 55 19 241 205 197 197 202 201 243 201 37 0 42 -3 52 -32 6 -18 24
-45 38 -60 l27 -28 -77 -78 -77 -77 0 -90 0 -90 -87 -87 -88 -88 -150 0 -150
0 -85 -85 -85 -84 -43 15 c-103 35 -202 -38 -202 -148 0 -145 186 -203 273
-86 32 44 40 80 27 130 l-12 41 73 73 73 74 156 0 156 0 107 109 107 108 0 94
0 94 80 80 c53 52 89 80 107 83 40 5 91 39 108 73 l16 29 197 0 197 0 210 210
210 210 50 0 50 0 125 125 125 125 227 0 c140 0 229 -4 233 -10 4 -6 63 -10
146 -10 l139 0 0 -55 0 -55 -145 0 c-90 0 -145 -4 -145 -10 0 -6 -53 -10 -138
-10 l-138 0 -127 -128 -127 -129 0 -179 0 -179 -222 -222 -223 -222 -137 -3
-137 -3 -48 -47 -49 -48 -244 0 -245 0 -159 -159 c-132 -132 -163 -158 -177
-150 -88 47 -176 -73 -104 -141 59 -55 151 -11 148 71 -2 40 1 44 149 190 83
82 158 149 167 149 183 6 420 3 418 -5 -2 -6 -81 -12 -195 -15 l-192 -5 -140
-140 -140 -140 0 -79 c0 -76 -2 -82 -31 -113 l-32 -32 -29 31 c-25 27 -33 30
-70 25 -100 -13 -107 -142 -10 -172 24 -7 82 11 82 26 0 4 27 37 60 72 l60 65
0 78 0 79 132 132 133 133 158 0 c103 0 156 -3 152 -10 -4 -6 -62 -10 -143
-10 l-136 0 -123 -123 -123 -123 0 -95 0 -94 -124 -124 c-87 -87 -129 -122
-140 -118 -9 4 -16 15 -16 25 0 26 -35 69 -70 87 -40 21 -109 19 -144 -4 -45
-30 -66 -70 -66 -128 0 -58 27 -101 83 -129 67 -35 162 4 191 78 12 28 22 38
39 38 15 0 62 40 155 133 l132 132 0 95 0 95 108 108 107 107 105 0 105 0 -3
-167 -3 -168 -87 -88 -88 -88 -37 16 c-50 21 -76 19 -127 -8 -142 -75 -86
-287 76 -287 97 0 172 110 141 205 -6 17 13 41 93 123 l100 101 0 158 0 158
117 117 118 118 135 0 135 0 102 102 103 103 0 -96 0 -96 -136 -134 c-87 -86
-141 -133 -152 -130 -104 22 -165 3 -195 -62 -52 -108 27 -227 141 -213 59 8
97 37 118 92 15 40 16 53 5 92 l-12 45 141 142 140 142 0 134 0 134 115 115
115 115 0 184 0 185 109 106 109 105 144 -6 c78 -4 198 -7 265 -8 l122 -1 3
-82 3 -83 73 -3 72 -3 0 -134 c0 -83 4 -135 10 -135 6 0 10 -10 10 -23 0 -15
-29 -51 -89 -111 l-89 -89 -173 2 -174 2 -144 -145 c-133 -133 -146 -144 -169
-135 -53 20 -112 -23 -112 -83 0 -69 70 -110 132 -77 28 15 50 72 39 102 -9
22 3 36 127 160 l137 137 148 0 c96 0 146 -4 142 -10 -4 -6 -61 -10 -138 -10
l-132 0 -88 -88 -87 -87 0 -53 c0 -37 -4 -52 -14 -52 -7 0 -25 -11 -40 -25
-39 -36 -37 -94 5 -129 17 -14 39 -26 50 -26 34 0 76 28 86 57 12 36 -2 89
-27 106 -16 9 -20 23 -20 63 0 51 1 53 73 123 l72 71 105 0 105 0 -78 -78 -77
-77 0 -85 0 -85 -143 -143 -142 -142 -54 0 c-53 0 -54 0 -135 -80 l-82 -80
-63 0 c-57 0 -66 3 -91 30 -38 40 -81 41 -121 1 -64 -65 -10 -166 79 -146 33
7 56 29 66 63 7 20 13 22 79 22 l73 0 74 75 c60 60 80 75 105 75 28 0 26 -4
-65 -95 l-95 -95 -71 0 -71 0 -52 -55 c-62 -65 -92 -72 -116 -25 -29 56 -105
63 -145 13 -29 -37 -26 -79 9 -114 42 -41 84 -40 127 6 22 24 42 35 61 35 22
0 42 14 83 55 l55 56 60 -3 c52 -3 60 -6 60 -23 0 -17 -8 -20 -61 -23 l-60 -3
-74 -74 -74 -75 -101 0 c-72 1 -105 5 -119 15 -11 8 -35 15 -53 15 -73 0 -110
-88 -60 -145 46 -54 146 -21 150 49 l2 26 91 0 90 0 84 80 c83 80 84 80 137
80 52 0 53 0 53 -30 0 -26 -20 -51 -129 -160 l-129 -130 -69 0 -68 0 -78 -78
-79 -79 -42 15 c-38 14 -47 14 -82 1 -43 -16 -84 -68 -84 -106 0 -38 26 -90
54 -109 33 -21 95 -23 130 -5 36 20 66 84 59 128 -6 32 -1 39 68 109 73 73 74
74 126 74 l53 0 0 -264 0 -265 -100 -100 -100 -101 -40 21 c-123 64 -255 -67
-194 -194 37 -77 150 -104 214 -51 46 39 63 79 57 133 l-5 46 109 111 109 111
0 284 0 285 68 67 c37 37 70 67 72 67 3 0 4 -69 2 -153 l-3 -154 -39 -38 -40
-39 0 -126 0 -126 55 -54 c61 -60 67 -85 32 -118 -19 -18 -29 -20 -54 -13 -61
18 -124 -42 -109 -104 17 -66 104 -88 153 -39 22 22 25 32 21 69 -5 38 -2 47
21 69 17 16 28 38 29 59 2 28 -6 41 -58 92 l-60 59 0 105 0 104 45 48 45 48 0
179 c0 166 1 180 20 197 20 18 20 17 20 -206 l0 -225 -31 -18 c-35 -20 -69
-85 -69 -131 0 -49 40 -107 87 -130 l42 -20 1 -125 0 -125 -129 -130 c-72 -71
-133 -130 -138 -129 -4 0 -21 6 -37 12 -58 25 -116 -17 -116 -84 0 -34 5 -47
26 -63 59 -46 144 -10 144 61 0 29 16 50 140 173 l140 140 0 137 0 138 24 0
c65 0 130 85 123 162 -6 74 -43 114 -129 142 -17 5 -18 30 -18 328 l0 323 255
255 255 255 0 85 0 85 220 220 c209 208 220 222 220 257 0 21 5 38 10 38 6 0
10 52 10 135 l0 135 55 0 55 0 0 -135 c0 -83 4 -135 10 -135 6 0 10 -24 10
-53 l0 -52 -180 -180 -180 -180 0 -125 0 -125 -147 -147 c-139 -139 -150 -148
-186 -148 -21 0 -49 -7 -62 -16 -30 -19 -44 -78 -25 -107 11 -18 4 -28 -64
-96 l-76 -76 0 -161 0 -160 44 -43 c38 -38 43 -47 36 -70 -9 -34 10 -85 39
-100 61 -33 131 8 131 77 0 60 -69 109 -118 83 -16 -8 -25 -4 -56 28 l-38 39
1 149 2 150 63 66 c59 63 66 67 107 67 67 1 107 44 95 102 -6 28 4 40 149 184
l155 154 0 128 0 127 180 180 180 180 0 62 c0 56 2 63 20 63 19 0 20 7 20 135
l0 135 54 0 54 0 6 -152 c3 -84 7 -173 9 -198 l3 -45 -128 -130 -128 -131 0
-121 0 -121 -30 -12 c-67 -28 -105 -107 -89 -181 l10 -43 -211 -211 c-171
-171 -210 -215 -210 -238 0 -17 -5 -27 -14 -27 -8 0 -28 -12 -46 -26 -90 -76
-78 -205 23 -259 l37 -20 0 -250 0 -249 -220 -221 c-215 -216 -220 -222 -220
-262 0 -39 -2 -41 -35 -47 -47 -9 -102 -59 -116 -106 -33 -109 64 -217 175
-196 48 9 103 59 117 106 16 54 4 105 -37 149 -24 28 -34 48 -34 72 0 30 21
55 220 254 l220 221 0 44 0 45 40 -40 c34 -34 40 -48 45 -94 l5 -54 -155 -157
-155 -157 0 -141 0 -141 -35 6 c-29 5 -39 1 -65 -25 -42 -42 -42 -90 1 -126
33 -28 53 -32 93 -16 44 16 48 39 47 244 l-2 191 151 150 150 150 0 70 0 71
-60 59 c-59 58 -60 60 -60 115 l0 55 115 -117 115 -116 0 -99 0 -98 -155 -155
-155 -155 0 -110 0 -111 49 -48 c42 -41 49 -54 44 -76 -8 -41 20 -86 62 -100
89 -29 152 85 83 150 -23 22 -86 28 -104 10 -7 -7 -25 5 -57 39 l-47 50 0 88
0 88 133 133 c73 72 136 132 140 132 4 0 7 -21 7 -47 -1 -43 -4 -50 -32 -68
-60 -38 -58 -119 3 -150 42 -22 67 -18 100 14 43 44 35 116 -17 140 l-24 11 0
188 0 189 -130 128 -130 129 0 121 0 122 37 24 c101 66 100 210 -2 265 -19 10
-35 23 -35 29 0 5 90 100 201 211 l201 201 42 -14 c58 -19 111 -5 156 42 29
30 34 43 38 92 3 49 0 64 -20 93 -13 19 -40 44 -61 55 l-37 20 0 104 0 104 92
93 c50 51 95 91 99 88 4 -2 7 -155 6 -339 l-2 -335 -147 -148 -148 -147 0
-163 c0 -134 -2 -162 -14 -162 -24 0 -56 -50 -56 -87 0 -67 82 -107 138 -67
53 37 48 120 -10 150 l-30 15 4 150 3 149 130 130 c128 128 131 130 133 99 2
-27 -9 -43 -83 -118 l-85 -87 0 -85 0 -84 -35 -28 c-27 -22 -35 -35 -35 -61 0
-101 138 -128 169 -33 15 44 1 82 -39 105 -29 17 -30 19 -30 93 l0 77 60 58
c34 33 66 61 71 63 7 2 10 -112 8 -355 l-3 -359 -113 -116 -113 -115 0 -342
c0 -338 0 -342 -20 -342 -63 0 -130 -74 -138 -150 -6 -65 2 -93 40 -136 76
-86 190 -86 266 0 38 44 46 71 40 137 -6 58 -29 93 -81 128 l-37 24 0 220 0
220 26 -24 c15 -13 71 -69 125 -123 l99 -99 0 -206 -1 -206 -32 -20 c-133 -84
-83 -285 71 -285 139 0 207 157 110 257 -18 18 -43 36 -55 39 l-23 6 0 221 0
221 -160 161 -160 161 0 55 0 54 110 110 c101 101 109 112 112 151 l3 43 53
-49 52 -50 0 -168 0 -168 -29 -17 c-40 -24 -57 -68 -41 -107 13 -32 55 -60 89
-60 11 0 33 12 50 26 49 41 41 112 -16 143 -22 11 -23 16 -23 164 l0 152 90
-90 90 -90 0 -285 0 -285 -30 -17 c-39 -22 -64 -79 -55 -126 9 -46 61 -98 107
-107 115 -22 195 121 117 209 -16 19 -39 38 -50 41 -18 6 -19 18 -19 233 l0
226 60 -59 60 -59 0 -111 1 -110 59 -59 60 -60 0 -161 0 -160 -44 -43 c-37
-36 -48 -41 -73 -36 -93 18 -148 -106 -71 -160 27 -19 61 -21 91 -4 40 21 48
40 42 95 -5 47 -3 53 23 75 66 58 67 59 72 210 l5 139 69 -67 69 -67 3 -76 c5
-100 5 -91 -2 -133 -5 -32 -2 -41 24 -68 47 -47 110 -36 139 24 14 30 14 39 3
66 -18 44 -52 64 -95 57 l-35 -6 0 72 0 72 -155 155 -155 155 0 110 0 111 -75
74 c-71 71 -75 77 -75 120 l0 45 -195 195 -195 195 0 532 c0 293 3 533 8 533
4 0 47 -39 95 -88 l87 -87 0 -276 c0 -238 -2 -278 -16 -289 -57 -48 -63 -161
-12 -233 42 -59 139 -83 211 -53 44 18 95 78 103 121 22 119 -61 219 -178 218
l-48 -1 0 169 c0 93 3 169 8 169 4 0 85 -78 180 -173 l172 -172 0 -177 0 -176
-33 -11 c-60 -20 -107 -84 -107 -146 0 -58 36 -112 92 -138 l48 -22 0 -50 0
-50 200 -200 c176 -176 200 -204 200 -232 0 -22 -9 -41 -30 -61 -39 -39 -41
-92 -5 -127 47 -48 135 -21 150 45 8 37 -20 88 -52 96 -19 5 -23 13 -23 48 0
40 -4 45 -205 246 -201 201 -205 206 -205 246 0 38 3 43 32 53 18 6 45 23 60
38 l28 27 78 -76 77 -76 95 -1 95 -2 88 -87 87 -87 0 -155 0 -155 81 -81 c72
-72 80 -84 70 -102 -19 -36 -13 -116 12 -152 86 -127 282 -67 279 86 0 59 -28
102 -82 132 -44 23 -87 25 -131 8 -11 -5 -39 16 -92 67 l-77 74 0 154 0 154
-108 108 -107 107 -90 0 -90 0 -81 83 c-59 60 -84 93 -93 124 -11 39 -68 103
-91 103 -6 0 -10 79 -10 203 l0 202 -210 210 -210 210 0 45 c0 45 -2 47 -125
170 l-125 125 0 242 c0 155 4 243 10 243 6 0 10 52 10 135 l0 135 55 0 55 0 0
-134 c0 -110 3 -135 15 -140 9 -3 15 -18 15 -39 0 -26 10 -43 50 -82 l50 -49
0 -171 0 -170 79 -79 c77 -77 78 -79 74 -120 -7 -58 27 -100 80 -100 80 0 118
94 61 151 -22 22 -32 25 -69 21 -43 -5 -44 -4 -119 71 l-76 76 0 145 0 145
215 -215 215 -215 0 -135 0 -136 50 -49 50 -49 0 -251 0 -250 155 -155 c150
-151 156 -157 145 -184 -32 -85 76 -154 144 -91 34 32 35 83 2 122 -20 23 -31
27 -68 26 -43 -1 -44 -1 -195 150 l-153 152 0 224 c0 197 2 222 15 211 12 -10
15 -45 15 -199 l0 -186 143 -143 142 -142 80 0 c75 0 81 -2 111 -31 l32 -31
-31 -28 c-63 -56 -26 -150 59 -150 75 0 115 98 61 148 -13 12 -26 22 -30 22
-3 0 -27 23 -53 50 l-47 50 -81 0 -81 0 -138 138 -137 137 0 159 c0 140 2 157
15 146 12 -10 15 -40 15 -149 l0 -136 119 -119 119 -119 93 2 93 2 123 -123
c68 -67 123 -130 123 -140 0 -9 -9 -20 -21 -23 -35 -11 -87 -64 -99 -101 -21
-62 11 -139 70 -169 66 -34 162 -8 193 52 43 82 11 176 -70 209 -21 9 -33 21
-33 33 0 11 -56 76 -135 155 l-136 136 -96 0 -96 0 -108 111 -109 112 0 109
c0 101 1 108 18 99 9 -5 87 -10 172 -10 l155 -2 87 -86 87 -86 -16 -30 c-22
-44 -13 -117 20 -161 33 -42 83 -60 148 -53 l48 6 76 -75 76 -74 143 0 142 0
27 -28 c26 -27 27 -33 27 -132 l0 -104 -156 -156 -155 -157 0 -119 c1 -65 -1
-133 -5 -150 -4 -24 0 -37 21 -62 54 -64 155 -29 155 53 0 53 -36 85 -95 85
l-45 0 0 91 0 91 155 155 155 155 0 96 c0 94 0 95 20 77 19 -17 20 -31 20
-221 0 -121 4 -205 10 -209 5 -3 7 -25 3 -50 -5 -40 -3 -47 25 -74 41 -41 83
-42 123 -2 32 33 36 58 14 100 -19 38 -65 56 -105 43 l-30 -11 -1 132 c0 73
-1 153 -2 180 -1 26 0 47 3 47 3 0 44 -39 91 -87 74 -76 85 -91 80 -113 -26
-98 80 -182 169 -134 68 37 88 122 42 182 -24 32 -87 52 -126 41 -30 -9 -35
-4 -211 171 l-181 180 -145 0 -145 0 -61 62 -62 63 16 48 c12 38 14 56 5 83
l-10 34 277 0 276 0 170 -170 170 -170 125 0 125 -1 20 -32 c28 -44 65 -55
110 -34 61 29 70 106 18 147 -37 29 -79 26 -115 -10 l-30 -30 -126 0 -127 0
-169 170 -170 170 -284 0 -285 0 -54 27 c-50 24 -59 25 -101 15 l-47 -11 -100
100 -100 99 -155 0 -155 0 -118 118 -117 117 0 132 0 131 -100 98 c-55 54
-100 102 -100 106 0 4 42 8 93 8 l92 0 133 -133 134 -134 -12 -42 c-30 -114
57 -209 174 -187 22 4 47 21 70 46 32 36 36 46 36 94 0 44 -5 60 -26 86 -48
57 -105 73 -174 49 l-32 -12 -142 142 -141 141 -135 0 -135 0 -152 153 c-105
105 -153 160 -153 175 0 12 5 22 10 22 6 0 10 52 10 135 l0 135 85 0 85 0 0
85 0 85 138 0 138 0 52 -53 52 -53 0 -174 0 -175 138 -138 139 -139 -5 -47
c-4 -44 -2 -50 28 -74 36 -31 59 -33 99 -12 40 20 55 66 37 110 -18 42 -48 59
-96 52 -37 -5 -40 -2 -174 132 l-136 136 0 149 c0 131 2 147 15 136 12 -10 15
-39 15 -144 l0 -131 83 -82 82 -82 65 -5 c36 -2 81 -8 100 -11 69 -13 119 60
85 125 -43 82 -165 48 -165 -46 0 -32 -2 -34 -33 -34 -28 0 -46 12 -110 75
l-77 76 0 107 0 107 83 -83 82 -82 85 0 85 0 143 -143 142 -142 0 -55 0 -56
75 -74 75 -74 0 -69 c0 -61 -3 -70 -26 -90 -36 -31 -36 -89 -1 -125 55 -55
147 -15 147 64 0 37 -36 84 -65 84 -12 0 -15 14 -15 73 l0 72 -80 80 c-65 64
-80 85 -80 110 0 28 4 26 95 -65 l95 -95 0 -68 0 -68 55 -58 c38 -40 55 -66
55 -84 0 -15 -5 -27 -10 -27 -6 0 -22 -11 -35 -25 -56 -55 -16 -145 63 -145
83 0 117 95 54 151 -22 19 -32 38 -32 57 0 20 -14 42 -55 82 l-55 54 0 63 c0
56 2 63 20 63 18 0 20 -7 20 -58 l0 -57 80 -80 80 -80 0 -93 c0 -79 -3 -98
-20 -119 -24 -31 -25 -54 -5 -94 41 -79 165 -47 165 43 0 38 -48 88 -84 88
l-26 0 0 96 0 96 -80 79 c-79 77 -80 78 -80 128 l0 51 37 0 c33 0 47 -11 161
-125 l125 -125 -2 -66 -2 -65 82 -85 c78 -79 82 -85 71 -109 -42 -91 25 -184
125 -172 l44 5 108 -109 108 -109 141 0 141 0 16 -30 c35 -67 146 -51 160 24
11 58 -25 105 -82 106 -45 0 -62 -9 -79 -41 l-15 -29 -132 0 -132 0 -104 104
-103 103 16 31 c47 91 -21 193 -121 180 -40 -6 -43 -4 -114 68 -70 70 -73 75
-73 121 l-1 48 270 3 270 2 94 -96 94 -96 -17 -34 c-39 -82 -9 -171 69 -205
56 -25 104 -18 151 23 63 56 69 139 13 203 -35 39 -81 55 -136 48 -37 -4 -41
-2 -143 101 l-105 106 -285 0 -286 0 -74 75 -74 75 155 0 155 0 44 -45 44 -45
118 0 117 0 61 60 c34 33 69 60 79 60 10 0 27 -10 39 -23 17 -18 21 -31 16
-55 -8 -37 11 -89 37 -102 10 -6 33 -10 52 -10 27 0 41 7 61 31 14 17 26 39
26 50 0 59 -64 108 -114 89 -19 -7 -29 -3 -52 21 -21 21 -37 29 -64 29 -30 0
-44 -9 -90 -55 l-54 -55 -111 0 -111 0 -40 40 -39 40 -181 0 c-168 0 -182 1
-199 20 -18 20 -17 20 207 20 l225 0 11 -25 c30 -65 145 -87 214 -40 21 14 42
39 49 60 l13 35 131 0 130 0 132 -132 c123 -124 131 -134 117 -152 -23 -32
-17 -74 15 -107 35 -35 77 -38 114 -9 69 54 25 160 -66 160 -15 0 -67 45 -162
140 l-140 140 -131 0 -132 0 -7 27 c-17 69 -79 116 -152 115 -73 -2 -131 -47
-148 -115 l-7 -27 -326 0 -327 0 -255 255 -256 255 -84 0 -84 0 -197 195 -196
195 -137 0 -136 0 0 55 0 55 135 0 c128 0 135 1 135 20 0 16 7 20 37 20 35 0
48 -11 198 -159 l160 -158 105 -1 104 -2 147 -146 c140 -140 147 -149 142
-180 -5 -27 0 -38 25 -64 41 -40 83 -41 123 -1 48 49 34 114 -30 141 -23 9
-38 9 -63 1 l-32 -11 -151 150 -150 150 -105 0 -105 0 -155 155 -155 155 -47
0 c-41 0 -48 3 -48 20 0 19 -7 20 -135 20 l-135 0 0 53 0 54 183 6 182 6 128
-127 127 -127 123 -3 122 -4 23 -37 c39 -63 105 -89 176 -70 l39 11 211 -211
c148 -148 218 -211 233 -211 16 0 28 -12 43 -40 56 -110 215 -108 273 3 l19
37 252 0 251 0 205 -205 205 -205 70 0 70 0 -3 -57 c-3 -48 1 -64 20 -93 85
-127 278 -68 278 84 0 69 -33 118 -96 142 -39 15 -53 16 -90 6 -24 -7 -86 -12
-137 -12 l-92 0 -205 205 c-198 198 -206 205 -245 205 l-40 0 40 40 c37 37 45
40 99 41 l58 2 152 -152 151 -151 140 0 141 0 -4 -39 c-11 -109 146 -127 173
-20 10 41 -19 88 -58 96 -18 4 -36 6 -42 4 -5 -1 -84 -2 -175 -2 l-165 2 -150
149 -150 150 -70 0 -71 0 -59 -60 c-58 -59 -60 -60 -115 -60 l-55 0 115 115
115 116 101 -2 101 -1 154 -154 154 -154 110 0 109 0 48 47 c42 42 52 47 86
45 104 -8 128 148 27 174 -66 16 -126 -51 -103 -117 11 -31 9 -34 -35 -76
l-46 -43 -88 0 -88 0 -132 132 c-73 73 -133 136 -133 141 0 4 22 7 50 6 43 -2
50 -6 60 -29 11 -27 46 -50 76 -50 31 0 72 30 83 61 19 56 -22 119 -79 119
-32 0 -78 -27 -85 -50 -6 -19 -15 -20 -195 -20 l-188 0 -130 -128 -129 -129
-84 -6 c-153 -12 -156 -12 -175 29 -9 19 -33 46 -53 60 -73 49 -189 20 -221
-55 -7 -17 -20 -31 -29 -31 -9 0 -106 89 -215 199 -179 179 -197 200 -187 219
6 11 11 42 11 69 0 161 -208 213 -285 70 l-20 -37 -105 0 -105 0 -95 95 -95
95 341 0 341 0 144 -145 144 -145 162 0 c158 0 163 -1 174 -22 18 -35 40 -47
82 -48 92 0 120 122 36 163 -46 22 -93 8 -115 -34 l-15 -29 -151 0 -151 0
-124 122 c-67 67 -123 126 -123 130 0 4 12 8 28 8 21 0 46 -18 107 -80 l80
-80 92 0 c58 0 93 -4 93 -10 0 -25 50 -60 84 -60 82 0 120 90 63 147 -44 45
-124 29 -142 -28 -6 -17 -17 -19 -88 -19 l-81 0 -58 57 c-32 32 -58 61 -58 65
0 5 161 8 357 8 l357 -1 116 -114 116 -115 411 0 412 0 -15 -27 c-58 -113 81
-232 187 -160 61 41 77 113 39 175 -20 32 -71 62 -106 62 -9 0 -27 9 -41 20
-24 19 -41 20 -262 20 l-235 0 74 75 74 75 218 0 217 0 17 -35 c26 -55 69 -80
136 -80 42 0 64 5 85 21 116 86 71 266 -70 281 -57 6 -124 -30 -150 -80 l-19
-37 -231 0 -230 0 -111 -110 -111 -110 -134 0 -134 0 -110 110 c-103 103 -112
110 -149 110 l-40 0 49 50 48 50 170 -1 170 0 20 -31 c38 -60 119 -58 151 4
45 87 -67 170 -140 103 -14 -13 -26 -29 -26 -35 0 -6 -52 -10 -150 -10 -82 0
-150 3 -150 7 0 3 39 44 88 89 l87 84 281 0 282 0 16 -25 c38 -58 109 -79 166
-50 90 47 96 178 10 229 -61 35 -155 7 -180 -54 l-12 -30 -172 0 -171 0 120
120 120 120 210 0 209 0 47 -46 c42 -42 46 -50 42 -83 -4 -27 0 -43 16 -63 58
-74 176 -18 156 74 -12 52 -82 85 -125 58 -11 -7 -29 5 -71 46 l-57 54 -179
-1 c-224 -1 -208 -2 -193 16 10 12 37 15 121 15 l108 0 110 108 c103 101 112
108 144 104 44 -5 75 12 91 50 17 39 10 71 -20 99 -32 30 -87 29 -121 -3 -22
-20 -24 -29 -20 -74 l5 -51 -97 -97 -96 -96 -110 0 -110 0 -175 -175 -175
-175 -100 0 -100 0 -190 -190 -190 -190 -540 0 -540 0 89 89 89 90 270 1 c269
1 269 1 301 -23 97 -74 224 -49 275 55 27 57 27 103 -1 158 -85 167 -331 110
-333 -77 l0 -53 -175 0 -175 0 175 175 175 174 165 1 c91 1 172 1 181 0 8 0
23 -18 33 -40 22 -51 67 -82 126 -88 71 -7 141 39 159 104 7 27 11 29 62 32
l55 3 199 199 c163 163 205 200 227 200 16 0 28 -5 28 -10 0 -6 11 -22 25 -35
32 -33 75 -32 114 1 44 37 44 91 0 128 -17 14 -39 26 -50 26 -31 0 -77 -28
-84 -50 -5 -15 -15 -20 -38 -20 -28 0 -56 -24 -237 -205 l-205 -206 -43 3
c-38 3 -45 7 -57 34 l-13 32 370 370 371 371 28 -14 c43 -23 120 -19 159 8
127 86 67 277 -87 277 -94 0 -158 -71 -150 -166 l5 -51 -372 -372 -373 -373
-39 12 c-56 17 -113 0 -153 -45 -17 -20 -31 -40 -31 -45 0 -6 -79 -10 -203
-10 l-202 0 -210 -210 -210 -210 -45 0 c-45 0 -47 -2 -165 -120 l-120 -121
-245 6 c-135 3 -300 6 -367 6 l-123 1 0 59 0 59 135 0 c83 0 135 4 135 10 0 6
21 10 48 10 l47 0 310 310 310 310 135 0 136 0 49 50 49 50 250 0 249 0 155
155 c115 115 160 154 171 148 79 -36 159 45 119 120 -28 52 -88 63 -135 23
-22 -19 -27 -32 -28 -70 0 -46 -1 -46 -150 -196 l-150 -150 -224 0 c-197 0
-222 2 -211 15 10 12 45 15 199 15 l186 0 143 143 142 142 0 81 c0 78 1 81 34
113 33 32 34 33 41 11 9 -27 61 -50 98 -43 98 19 81 173 -19 173 -32 0 -44 -8
-110 -77 l-73 -78 -1 -80 0 -80 -138 -138 -137 -137 -159 0 c-140 0 -157 2
-146 15 10 12 40 15 149 15 l136 0 118 118 117 117 0 95 0 95 123 123 c67 67
129 122 138 122 8 0 25 -20 36 -44 16 -32 33 -49 65 -65 54 -26 71 -26 125 -1
77 34 105 124 64 200 -28 54 -73 74 -153 71 -34 -1 -83 -43 -108 -90 -12 -25
-26 -37 -41 -38 -15 -1 -69 -48 -151 -130 l-128 -128 0 -95 0 -95 -113 -113
-112 -112 -105 0 -105 0 3 167 3 168 91 92 c91 91 92 92 119 77 67 -34 158 -5
196 62 53 92 7 197 -97 225 -40 11 -51 10 -92 -9 -73 -32 -113 -115 -89 -184
11 -32 11 -33 -89 -133 l-100 -100 0 -155 0 -155 -117 -117 -118 -118 -134 0
-134 0 -103 -102 -104 -102 0 95 0 94 138 138 c109 109 140 135 150 125 21
-21 114 -15 149 10 57 40 79 122 49 181 -15 28 -15 28 125 176 l139 149 0 101
0 100 98 98 97 97 101 0 100 0 34 35 34 35 189 0 190 0 91 90 c108 106 132
113 179 55 23 -30 34 -35 68 -35 80 0 120 90 64 145 -33 34 -93 34 -123 2 -12
-13 -22 -29 -22 -35 0 -8 -18 -12 -48 -12 -46 0 -49 -2 -134 -87 l-88 -88
-161 3 -162 3 23 24 c23 24 28 25 159 25 l136 0 95 96 c85 85 98 95 123 90 38
-8 81 16 96 52 32 77 -45 146 -122 111 -40 -18 -60 -83 -37 -119 7 -12 -11
-36 -83 -107 l-92 -93 -109 0 -110 0 48 49 c44 44 51 48 74 40 36 -14 78 -2
102 28 29 37 26 79 -9 114 -40 40 -82 39 -123 -1 -26 -27 -30 -36 -24 -68 6
-37 4 -38 -137 -179 l-142 -143 -100 0 -100 0 -103 -103 -102 -102 0 -103 0
-102 -137 -144 c-129 -137 -138 -144 -157 -130 -11 8 -44 14 -73 14 -47 0 -58
-4 -93 -36 -47 -42 -59 -87 -41 -153 l12 -45 -141 -139 -140 -139 0 -132 0
-132 -185 -185 c-155 -154 -191 -184 -215 -185 -17 0 -30 3 -30 8 0 4 -61 8
-135 8 l-135 0 0 80 0 80 -85 0 -85 0 0 140 c0 87 -4 140 -10 140 -5 0 -10 17
-10 39 0 31 6 43 32 65 l32 26 265 0 265 0 133 139 134 140 49 -6 c43 -5 51
-3 74 20 45 45 28 125 -31 148 -64 24 -137 -46 -115 -109 9 -25 1 -35 -126
-164 l-136 -138 -238 0 c-207 0 -237 2 -232 15 5 13 41 15 233 15 l227 0 83
84 82 85 -2 58 c-2 33 2 68 10 81 27 49 -26 122 -88 122 -11 0 -33 -12 -50
-26 -65 -55 -24 -154 63 -154 23 0 26 -4 26 -37 0 -33 -9 -46 -72 -110 l-72
-73 -193 0 c-106 0 -193 3 -193 7 0 3 134 141 298 305 l297 298 55 0 56 0 76
75 76 75 71 0 c59 0 72 -3 80 -19 17 -31 67 -43 106 -27 59 25 74 93 30 140
-45 48 -125 29 -148 -36 -7 -19 -15 -21 -90 -18 -47 2 -49 0 -131 -79 -61 -61
-89 -81 -109 -81 -15 0 -27 3 -27 7 0 3 39 46 87 95 l87 88 71 0 71 0 54 55
c66 67 92 71 133 20 22 -28 35 -35 62 -35 47 0 64 8 80 41 19 36 19 69 0 96
-33 47 -125 46 -147 -2 -9 -20 -19 -25 -45 -25 -28 0 -45 -10 -92 -55 -57 -54
-58 -55 -119 -55 -55 0 -62 2 -62 20 0 18 7 20 63 20 l62 0 80 80 80 80 85 0
c68 0 93 -4 126 -22 68 -36 134 -1 134 71 -1 114 -167 120 -174 6 -1 -25 -2
-25 -96 -25 l-95 0 -80 -80 -80 -81 -50 3 c-47 3 -50 5 -53 31 -3 25 13 46
124 158 l128 129 66 0 66 0 82 82 c77 76 84 80 108 70 63 -29 141 -4 169 54
18 39 19 64 3 99 -11 25 -7 31 120 158 l131 132 2 118 c1 75 5 120 13 125 6 4
31 7 55 7 35 0 48 6 67 28 33 38 32 86 -2 121 -66 65 -176 -4 -144 -90 8 -21
7 -31 -5 -44 -12 -13 -15 -42 -15 -131 l0 -114 -127 -128 c-124 -124 -128
-127 -156 -117 -44 15 -78 12 -114 -10 -42 -25 -57 -55 -55 -111 1 -44 -2 -48
-76 -121 -73 -71 -79 -75 -122 -74 l-45 1 -3 265 -2 265 99 99 99 99 35 -16
c77 -37 169 -11 201 57 60 128 -59 254 -187 198 -62 -28 -82 -61 -82 -139 l-1
-63 -107 -108 -107 -107 0 -285 0 -286 -70 -69 -70 -69 -1 139 c-1 77 0 147 1
155 1 8 19 33 41 55 l39 41 0 125 0 125 -55 54 c-60 59 -70 93 -37 123 14 13
29 16 65 11 42 -6 49 -4 76 24 34 34 38 59 16 101 -45 88 -175 45 -162 -53 5
-34 1 -45 -24 -73 -45 -52 -39 -78 31 -148 l60 -59 0 -106 0 -106 -45 -44 -45
-44 0 -181 c0 -175 -5 -205 -32 -205 -4 0 -8 97 -8 217 l0 216 40 34 c90 77
71 215 -37 259 l-33 14 0 128 0 127 133 132 c123 123 133 131 151 117 30 -21
81 -17 111 9 60 51 20 151 -61 151 -44 0 -84 -40 -84 -83 0 -23 -27 -55 -140
-168 l-140 -140 0 -135 0 -135 -39 -12 c-48 -14 -98 -68 -107 -117 -14 -76 33
-153 107 -176 l39 -11 0 -326 0 -326 -495 -495 -495 -495 0 -48 c0 -26 -4 -47
-10 -47 -6 0 -10 -53 -10 -140 l0 -140 -55 0 -55 0 0 140 c0 88 -4 140 -10
140 -7 0 -9 101 -8 298 l3 297 61 6 c71 7 114 32 138 83 18 39 21 83 6 122
-11 27 -4 34 200 239 116 116 213 220 215 231 2 10 4 22 4 25 1 4 15 12 32 19
41 17 77 67 85 117 9 58 -23 122 -74 151 l-39 22 -6 151 c-4 84 -7 197 -7 252
l0 100 188 189 c103 104 188 190 190 192 2 2 3 71 3 154 l1 150 38 37 38 37
38 -42 c66 -70 156 -73 222 -6 31 30 36 42 39 93 3 46 0 65 -16 91 -63 99
-199 96 -265 -5 -13 -21 -54 -67 -90 -103 l-66 -64 0 -155 0 -155 -196 -197
c-194 -195 -196 -197 -190 -233 3 -20 2 -36 -2 -36 -4 0 -25 17 -45 38 -34 35
-37 42 -37 98 l0 59 150 150 150 150 0 141 0 142 38 -5 c71 -9 121 61 88 126
-29 56 -86 67 -133 27 l-28 -24 3 -194 4 -193 -152 -152 -152 -152 1 -78 1
-77 60 -61 c57 -58 60 -63 60 -110 l0 -50 -115 115 -115 115 0 50 0 50 185
185 185 185 0 217 0 217 29 15 c56 30 64 107 14 146 -60 47 -143 4 -143 -74 0
-28 35 -76 56 -76 12 0 14 -35 14 -213 l0 -212 -170 -170 c-158 -158 -170
-168 -170 -140 0 26 23 53 150 180 l150 150 0 110 0 109 -47 48 c-42 42 -47
53 -45 86 5 57 -27 92 -82 92 -81 0 -119 -88 -64 -148 20 -21 29 -23 74 -19
50 5 53 4 93 -37 l41 -42 0 -90 0 -89 -135 -135 -135 -135 0 52 c0 44 4 54 23
64 33 18 46 40 47 77 0 39 -46 92 -80 92 -90 0 -130 -117 -55 -166 l25 -16 0
-187 0 -186 135 -135 135 -135 0 -117 0 -118 -40 -20 c-69 -35 -100 -132 -65
-200 16 -30 74 -80 93 -80 31 0 -3 -40 -191 -228 l-203 -203 -37 16 c-56 23
-111 11 -158 -36 -48 -48 -59 -96 -35 -159 10 -25 18 -52 18 -60 1 -318 -6
-631 -13 -635 -5 -4 -9 -69 -9 -146 l0 -139 -55 0 -55 0 0 140 c0 87 -4 140
-10 140 -7 0 -10 148 -10 423 l0 422 150 150 150 150 0 162 c0 107 4 163 10
163 20 0 60 52 60 77 0 54 -37 92 -91 93 -40 0 -75 -27 -85 -66 -8 -33 18 -90
45 -99 20 -6 21 -14 21 -163 l0 -157 -130 -130 -130 -130 0 35 c0 31 11 46 85
120 l85 85 0 83 c0 82 0 84 35 116 26 25 35 42 35 65 0 44 -47 91 -90 91 -43
0 -90 -47 -90 -91 0 -23 9 -40 35 -65 34 -32 35 -34 35 -111 l0 -79 -65 -64
-65 -64 0 368 0 368 106 106 c58 58 109 113 115 123 5 10 9 77 9 150 l0 132
-120 122 -120 121 0 240 0 240 35 13 c78 28 116 132 76 210 -28 55 -72 81
-136 81 -37 0 -60 -7 -86 -24z m149 -72 c12 -14 22 -38 22 -55 0 -39 -48 -89
-85 -89 -36 0 -85 50 -85 87 0 82 93 118 148 57z m-767 -26 c28 -52 -29 -104
-78 -73 -19 13 -23 23 -21 48 5 53 75 71 99 25z m1667 -4 c24 -17 30 -62 10
-82 -7 -7 -24 -12 -40 -12 -55 0 -75 80 -25 100 30 12 30 12 55 -6z m-1448
-54 c38 -38 15 -90 -40 -90 -50 0 -69 66 -28 94 30 21 44 20 68 -4z m1222 -77
c34 -31 11 -93 -35 -93 -27 0 -57 28 -57 53 0 48 56 73 92 40z m767 -24 c60
-21 77 -103 30 -145 -27 -24 -91 -24 -117 -1 -27 25 -36 64 -21 100 10 24 31
39 75 57 1 0 15 -5 33 -11z m-399 -54 c19 -22 8 -68 -19 -81 -32 -16 -64 -3
-76 31 -8 23 -6 30 17 50 28 24 58 24 78 0z m-2085 -45 c41 -45 -18 -110 -70
-76 -27 18 -34 63 -13 84 18 18 63 14 83 -8z m-558 -142 c23 -21 30 -67 17
-103 -8 -19 -55 -45 -84 -45 -33 0 -80 53 -80 90 0 70 95 107 147 58z m1193
-18 c24 -24 25 -48 4 -78 -32 -46 -114 -17 -114 40 0 26 36 58 65 58 14 0 34
-9 45 -20z m2140 -91 c17 -30 8 -62 -21 -78 -24 -13 -29 -13 -53 2 -48 32 -25
97 34 97 19 0 33 -7 40 -21z m-1195 -49 c41 -45 -18 -110 -70 -76 -27 18 -34
63 -13 84 18 18 63 14 83 -8z m-1631 -13 c21 -16 24 -60 6 -82 -7 -8 -25 -15
-40 -15 -33 0 -52 21 -52 57 0 28 24 53 52 53 9 0 24 -6 34 -13z m3095 -141
c45 -24 63 -84 39 -129 -18 -34 -40 -46 -81 -47 -98 0 -132 129 -46 176 31 17
54 17 88 0z m491 -6 c24 -24 25 -38 4 -68 -17 -24 -62 -30 -82 -10 -20 20 -14
65 10 82 30 21 44 20 68 -4z m-4553 -10 c92 -55 15 -193 -82 -147 -65 31 -66
125 -2 152 42 19 46 18 84 -5z m3631 -112 c18 -18 14 -63 -8 -83 -45 -40 -109
20 -75 71 17 26 62 33 83 12z m-1736 -74 c23 -50 -24 -95 -74 -70 -17 9 -23
20 -23 46 0 26 6 37 23 46 31 16 61 7 74 -22z m-1487 -259 c58 -28 72 -94 29
-144 -21 -26 -33 -31 -69 -31 -36 0 -48 5 -69 31 -42 50 -30 120 26 144 42 18
44 18 83 0z m3040 -40 c17 -16 25 -35 25 -60 0 -25 -8 -44 -25 -60 -16 -17
-35 -25 -60 -25 -25 0 -44 8 -60 25 -17 16 -25 35 -25 60 0 25 8 44 25 60 16
17 35 25 60 25 25 0 44 -8 60 -25z m-4136 -101 c40 -50 18 -114 -44 -130 -50
-12 -102 43 -90 97 14 61 96 81 134 33z m2096 -59 c28 -27 32 -63 10 -104 -39
-76 -155 -43 -155 44 0 49 36 85 85 85 25 0 44 -8 60 -25z m3837 8 c20 -18 24
-63 6 -81 -20 -20 -65 -14 -82 10 -21 30 -20 44 4 68 24 24 47 25 72 3z
m-1117 -18 c30 -30 31 -54 4 -89 -42 -54 -119 -25 -119 45 0 66 68 92 115 44z
m-3505 -20 c29 -35 4 -95 -40 -95 -28 0 -52 25 -52 53 0 36 19 57 52 57 15 0
33 -7 40 -15z m215 -9 c32 -48 -22 -104 -74 -76 -24 12 -29 68 -9 88 21 21 66
14 83 -12z m4098 -38 c19 -25 19 -28 3 -52 -22 -35 -69 -36 -91 -2 -18 27 -9
57 23 75 25 15 42 10 65 -21z m-5946 -64 c15 -24 15 -29 2 -53 -27 -49 -99
-35 -99 19 0 59 65 82 97 34z m6387 -26 c20 -29 20 -47 -1 -70 -33 -36 -93
-13 -93 37 0 52 65 74 94 33z m-3032 -30 c40 -33 20 -98 -31 -98 -36 0 -51 17
-51 57 0 46 46 69 82 41z m-2832 -18 c34 -18 44 -48 25 -76 -17 -26 -62 -33
-83 -12 -20 20 -14 65 10 82 27 19 24 19 48 6z m3385 -65 c35 -34 33 -78 -5
-117 -27 -26 -36 -30 -68 -25 -68 11 -95 85 -51 141 28 36 89 37 124 1z
m-1157 -37 c29 -24 44 -76 32 -112 -17 -53 -54 -81 -106 -80 -127 3 -150 179
-28 213 32 9 77 -1 102 -21z m477 -42 c28 -28 24 -60 -11 -82 -17 -12 -27 -13
-43 -4 -46 24 -47 74 -3 99 25 15 30 14 57 -13z m-3410 -41 c45 -44 25 -117
-35 -130 -61 -13 -113 50 -89 107 22 53 83 65 124 23z m5226 -27 c26 -48 -24
-98 -72 -74 -34 16 -34 75 -1 92 30 15 60 7 73 -18z m-3590 -7 c46 -46 34
-112 -25 -136 -47 -20 -89 -5 -110 40 -15 31 -15 38 -2 70 25 60 90 72 137 26z
m3427 -143 c22 -29 23 -57 3 -77 -24 -24 -49 -27 -75 -8 -21 16 -24 60 -6 82
15 18 64 20 78 3z m-4278 -138 c27 -27 26 -74 -2 -100 -28 -26 -58 -26 -92 1
-50 40 -21 119 44 119 17 0 39 -9 50 -20z m5521 7 c60 -46 46 -143 -24 -166
-42 -14 -76 -3 -106 35 -47 60 -3 144 76 144 21 0 45 -6 54 -13z m-622 -22
c32 -16 41 -33 41 -79 0 -72 -92 -105 -145 -51 -35 34 -33 78 4 116 33 32 58
36 100 14z m-5544 -9 c40 -17 55 -42 55 -91 0 -78 -95 -115 -157 -61 -50 43
-32 130 32 157 28 11 31 11 70 -5z m4795 -6 c24 -24 25 -38 4 -68 -17 -24 -62
-30 -82 -10 -29 29 -1 98 40 98 10 0 27 -9 38 -20z m1978 -102 c49 -46 17
-129 -54 -144 -46 -9 -94 35 -94 85 0 79 88 114 148 59z m-808 -118 c24 -24
25 -38 4 -68 -17 -24 -62 -30 -82 -10 -17 17 -15 64 4 82 21 22 50 20 74 -4z
m-4768 -7 c22 -20 23 -42 2 -71 -18 -26 -50 -28 -76 -5 -22 20 -23 51 -1 75
20 22 51 23 75 1z m2217 -9 c23 -19 31 -34 31 -59 0 -79 -90 -116 -145 -60
-35 34 -33 78 4 116 36 36 70 37 110 3z m-3661 -82 c26 -34 -1 -82 -48 -82
-33 0 -50 17 -50 51 0 52 65 72 98 31z m1606 -38 c22 -21 20 -57 -4 -79 -46
-41 -116 29 -75 75 22 24 58 26 79 4z m589 -25 c31 -34 34 -68 10 -110 -33
-55 -105 -58 -148 -7 -32 38 -32 78 0 117 42 49 92 49 138 0z m635 -37 c27
-35 2 -82 -45 -82 -36 0 -53 16 -53 51 0 52 65 72 98 31z m2293 -21 c32 -33
37 -67 15 -110 -14 -26 -53 -51 -81 -51 -48 0 -95 52 -95 105 0 40 50 85 95
85 27 0 44 -8 66 -29z m1089 9 c24 -24 25 -38 4 -68 -17 -24 -62 -30 -82 -10
-20 20 -14 65 10 82 30 21 44 20 68 -4z m-5880 -40 c24 -24 25 -38 4 -68 -28
-41 -94 -22 -94 28 0 55 52 78 90 40z m4128 -12 c21 -21 14 -66 -13 -84 -30
-20 -62 -11 -77 22 -17 37 6 74 47 74 17 0 36 -5 43 -12z m266 -44 c22 -21 20
-50 -4 -74 -24 -24 -38 -25 -68 -4 -24 16 -28 44 -12 75 13 23 62 26 84 3z
m-3976 -130 c44 -49 14 -127 -55 -140 -27 -5 -37 -1 -63 24 -34 35 -39 74 -14
110 33 48 92 50 132 6z m6082 -15 c28 -52 -28 -106 -76 -74 -26 17 -33 62 -12
83 20 20 76 15 88 -9z m482 -26 c22 -20 23 -51 1 -75 -31 -35 -93 -10 -93 38
0 48 55 70 92 37z m-7314 -36 c22 -20 29 -66 16 -102 -8 -19 -55 -45 -84 -45
-32 0 -80 53 -80 87 0 34 26 69 60 82 31 12 58 5 88 -22z m-296 -164 c20 -18
24 -63 6 -81 -20 -20 -65 -14 -82 10 -21 30 -20 44 4 68 24 24 47 25 72 3z
m2413 -7 c13 -19 14 -29 5 -45 -18 -35 -48 -45 -76 -26 -24 15 -28 26 -24 55
6 46 69 56 95 16z m-2613 -123 c35 -32 13 -93 -34 -93 -26 0 -58 27 -58 49 0
27 30 61 52 61 12 0 30 -7 40 -17z m6540 -23 c26 -27 30 -36 25 -68 -17 -104
-167 -95 -167 10 0 29 7 45 26 63 37 35 78 33 116 -5z m-4873 -35 c16 -8 34
-28 41 -46 12 -28 11 -36 -6 -67 -36 -66 -119 -64 -151 4 -14 27 -14 37 -3 64
12 29 50 59 78 60 7 0 26 -7 41 -15z m1939 9 c-10 -10 -58 -12 -64 -3 -3 5 12
9 32 9 21 0 35 -3 32 -6z m216 -8 c-7 -18 -56 -16 -62 2 -2 8 8 12 32 12 27 0
34 -4 30 -14z m216 1 c0 -8 -12 -14 -30 -14 -18 0 -30 6 -30 14 0 8 12 13 30
13 18 0 30 -5 30 -13z m220 -2 c0 -10 -10 -15 -29 -15 -16 0 -31 6 -35 15 -4
12 3 15 29 15 24 0 35 -5 35 -15z m-652 -168 c3 -91 1 -97 -17 -97 -47 0 -51
8 -51 99 0 48 3 90 6 94 3 3 18 5 32 4 27 -2 27 -2 30 -100z m211 78 c7 -3 11
-42 11 -91 l0 -84 -35 0 -35 0 0 94 c0 93 0 93 24 91 14 -2 30 -6 35 -10z
m221 -82 l0 -93 -30 0 -30 0 0 93 0 92 30 0 30 0 0 -92z m192 82 c5 -6 8 -5 8
3 0 6 5 12 10 12 6 0 10 -38 10 -95 l0 -95 -35 0 -35 0 0 79 c0 44 3 86 6 95
6 17 24 17 36 1z m3616 -21 c24 -17 30 -62 10 -82 -7 -7 -24 -12 -40 -12 -37
0 -62 37 -49 73 8 22 18 29 51 36 3 0 16 -6 28 -15z m-7734 -56 c46 -21 46
-76 0 -97 -59 -26 -104 57 -52 93 27 19 21 19 52 4z m7392 -83 c34 -52 -14
-110 -74 -89 -64 23 -46 114 23 114 26 0 39 -6 51 -25z m-1290 -19 c56 -56 44
-135 -26 -171 -37 -19 -63 -19 -100 0 -35 18 -60 62 -60 106 0 22 10 41 34 65
28 28 42 34 76 34 34 0 48 -6 76 -34z m-5669 -48 c21 -27 21 -48 1 -73 -25
-32 -54 -30 -81 7 -19 25 -19 28 -3 52 18 28 66 36 83 14z m2587 -134 c-3 -31
-9 -38 -23 -29 -12 7 -15 38 -4 48 15 16 30 5 27 -19z m246 -3 c0 -25 -4 -29
-37 -34 -21 -4 -61 -4 -90 0 -49 5 -52 7 -51 34 l1 29 89 0 88 0 0 -29z m1070
-1 c0 -20 -5 -30 -15 -30 -10 0 -15 10 -15 30 0 20 5 30 15 30 10 0 15 -10 15
-30z m250 1 c0 -26 -4 -29 -42 -34 -23 -3 -63 -3 -89 0 -39 5 -48 9 -52 29 -2
13 -2 26 1 29 3 3 45 5 94 5 l88 0 0 -29z m-4573 -43 c26 -24 42 -71 35 -106
-2 -12 -17 -36 -32 -52 -57 -61 -170 -27 -186 55 -19 101 108 173 183 103z
m6881 16 c24 -17 30 -62 10 -82 -29 -29 -98 -1 -98 40 0 21 34 58 53 58 7 0
23 -7 35 -16z m-4619 -60 c62 -52 25 -149 -55 -147 -78 2 -111 88 -55 144 36
36 70 37 110 3z m-857 -1 c34 -31 11 -93 -35 -93 -27 0 -57 28 -57 53 0 48 56
73 92 40z m6379 -72 c31 -31 36 -59 17 -94 -17 -33 -39 -46 -79 -47 -75 0
-113 97 -55 146 38 33 80 31 117 -5z m-4531 -56 l0 -35 -91 0 c-57 0 -88 4
-84 10 3 6 0 10 -7 11 -9 0 -10 2 -1 5 7 3 10 11 7 19 -7 17 15 22 104 24 l72
1 0 -35z m1070 -6 c0 -19 -5 -29 -15 -29 -10 0 -15 11 -15 35 0 26 3 33 15 29
9 -4 15 -19 15 -35z m250 6 l0 -35 -79 0 c-98 0 -109 4 -103 35 5 29 16 32
110 34 l72 1 0 -35z m-1570 -6 c0 -38 -22 -35 -27 4 -3 19 1 27 12 27 10 0 15
-10 15 -31z m-1448 9 c28 -22 31 -55 9 -77 -38 -38 -93 -17 -93 34 0 46 49 70
84 43z m4502 -154 c22 -21 20 -57 -4 -79 -46 -41 -116 29 -75 75 22 24 58 26
79 4z m-685 -35 c64 -22 77 -107 23 -150 -47 -37 -122 -10 -137 48 -12 49 15
87 81 113 1 0 15 -5 33 -11z m-2364 -19 c7 -22 -11 -53 -26 -44 -5 3 -9 15 -9
28 0 39 24 50 35 16z m245 -15 l0 -36 -87 3 -87 3 -3 33 -4 32 90 0 91 0 0
-35z m1070 16 c0 -26 -10 -51 -21 -51 -5 0 -9 16 -9 35 0 24 5 35 15 35 8 0
15 -9 15 -19z m250 -16 l0 -36 -87 3 c-70 2 -88 6 -88 18 0 8 -4 18 -10 23
-21 15 22 27 103 27 l82 0 0 -35z m1645 -69 c32 -48 -22 -104 -74 -76 -24 12
-29 68 -9 88 21 21 66 14 83 -12z m1347 -23 c22 -20 24 -66 2 -87 -35 -36
-104 -7 -104 42 0 54 62 81 102 45z m-6825 -42 c21 -43 -26 -93 -67 -71 -56
30 -39 104 23 98 22 -2 35 -11 44 -27z m2513 -81 c0 -22 -5 -30 -17 -31 -53
-2 -112 -2 -140 -1 -30 2 -33 5 -33 32 l0 30 95 0 95 0 0 -30z m1056 -5 c1
-14 -2 -25 -7 -25 -5 0 -9 14 -9 32 0 36 12 31 16 -7z m264 6 c0 -27 -3 -28
-53 -34 -29 -3 -74 -3 -100 0 -44 5 -47 7 -43 32 2 14 5 27 5 29 1 1 44 2 96
2 l95 0 0 -29z m-1580 -8 c0 -21 -3 -24 -9 -14 -5 8 -7 20 -4 28 8 21 13 15
13 -14z m-1404 -22 c90 -55 47 -201 -59 -201 -55 0 -91 30 -111 93 -9 27 23
96 53 112 36 20 80 18 117 -4z m5612 -7 c24 -17 30 -62 10 -82 -7 -7 -27 -12
-45 -12 -72 0 -66 101 7 109 3 1 16 -6 28 -15z m-6944 -100 c9 -8 16 -28 16
-44 0 -36 -23 -60 -57 -60 -55 0 -83 62 -46 102 20 22 66 24 87 2z m7370 -50
c45 -45 -17 -114 -70 -79 -26 17 -33 62 -12 83 17 17 64 15 82 -4z m-4174 -17
c0 7 7 10 16 6 14 -5 14 -7 2 -14 -20 -11 -65 1 -47 12 8 5 17 3 21 -4 6 -9 8
-9 8 0z m240 3 c18 -11 13 -16 -27 -25 -25 -5 -33 -3 -33 8 0 27 30 36 60 17z
m204 4 c27 -10 18 -30 -14 -30 -30 0 -42 20 -17 29 6 3 13 6 14 6 1 1 8 -2 17
-5z m220 0 c9 -3 16 -13 16 -21 0 -11 -7 -13 -32 -8 -39 9 -42 11 -33 24 7 12
26 14 49 5z m-4224 -79 c19 -22 8 -68 -19 -81 -44 -22 -91 17 -76 65 11 36 70
46 95 16z m6218 -27 c35 -33 30 -89 -10 -123 -25 -21 -38 -25 -62 -21 -63 12
-95 84 -60 134 32 46 88 50 132 10z m-2628 -74 l0 -95 -32 3 -33 3 -3 79 c-2
44 -1 85 2 93 3 7 19 13 36 13 l30 0 0 -96z m218 -7 l3 -87 -36 0 -35 0 0 91
0 90 33 -4 32 -3 3 -87z m210 1 l3 -88 -31 0 c-29 0 -30 1 -31 48 -1 59 2 115
7 123 2 4 14 6 26 5 22 -1 23 -5 26 -88z m222 1 l0 -89 -35 0 -35 0 0 74 c0
93 4 103 40 104 l30 1 0 -90z m-2882 -5 c31 -36 29 -79 -7 -115 -40 -40 -93
-36 -128 10 -21 27 -16 85 10 108 43 40 87 39 125 -3z m4369 -43 c8 -18 9 -30
1 -45 -22 -43 -49 -46 -83 -12 -25 25 -25 44 -2 74 17 21 70 10 84 -17z m-479
-103 c18 -18 14 -63 -8 -83 -45 -41 -110 18 -76 70 18 27 63 34 84 13z m2403
-8 c23 -13 26 -62 3 -84 -21 -22 -50 -20 -74 4 -24 24 -25 38 -4 68 16 24 44
28 75 12z m-1010 -259 c36 -37 38 -79 5 -117 -50 -59 -146 -20 -146 59 1 79
85 113 141 58z m-1443 3 c24 -17 30 -62 10 -82 -17 -17 -64 -15 -82 4 -22 21
-20 50 4 74 24 24 38 25 68 4z m2368 -8 c59 -50 21 -146 -57 -146 -29 0 -43 7
-63 31 -34 40 -33 74 3 110 37 36 79 38 117 5z m-7054 -13 c34 -31 11 -93 -35
-93 -27 0 -57 28 -57 53 0 48 56 73 92 40z m-416 -32 c26 -52 -34 -104 -76
-66 -22 20 -27 64 -8 83 21 21 71 10 84 -17z m6922 -173 c29 -29 3 -98 -37
-98 -45 0 -71 59 -41 95 15 18 61 20 78 3z m-4324 -14 c25 -24 20 -61 -10 -81
-24 -15 -29 -15 -53 -2 -32 18 -39 54 -15 80 21 23 57 25 78 3z m194 -60 c28
-20 30 -69 3 -84 -43 -22 -91 -1 -91 41 0 21 33 59 53 59 7 0 23 -7 35 -16z
m2854 -41 c35 -31 10 -93 -38 -93 -48 0 -70 55 -37 92 20 22 51 23 75 1z
m-491 -42 c80 -81 -20 -208 -115 -146 -79 52 -39 173 57 175 19 0 39 -10 58
-29z m-701 -1 c36 -36 16 -90 -35 -90 -49 0 -72 55 -38 92 21 24 48 23 73 -2z
m2808 -3 c6 -5 12 -22 12 -37 0 -48 -46 -69 -84 -39 -32 25 -33 43 -2 74 25
25 44 25 74 2z m-3552 -49 c29 -57 -2 -114 -69 -125 -31 -5 -40 -1 -67 25 -34
34 -37 59 -15 102 30 57 121 56 151 -2z m2096 -35 c36 -33 13 -93 -37 -93 -24
0 -55 33 -55 59 0 22 30 51 53 51 11 0 29 -7 39 -17z m-5521 -62 c32 -33 36
-58 14 -100 -15 -30 -55 -49 -91 -43 -33 5 -67 47 -66 81 2 84 85 120 143 62z
m1644 -83 c15 -14 28 -38 32 -60 5 -33 2 -41 -30 -73 -38 -38 -63 -43 -107
-20 -36 18 -50 43 -50 86 0 76 96 117 155 67z m5105 -14 c33 -32 34 -93 1
-127 -60 -65 -161 -23 -161 65 1 85 97 122 160 62z m-1057 -6 c19 -25 19 -28
3 -52 -18 -28 -63 -35 -84 -14 -20 20 -14 65 11 83 29 20 45 16 70 -17z
m-5195 -44 c40 -28 19 -94 -30 -94 -27 0 -58 28 -58 52 0 21 34 58 53 58 7 0
23 -7 35 -16z m5599 -26 c46 -43 16 -118 -47 -118 -63 0 -94 77 -48 120 28 26
66 26 95 -2z m-3403 -44 c23 -22 20 -71 -3 -84 -31 -16 -59 -12 -75 12 -21 30
-20 44 4 68 24 24 53 26 74 4z m-726 -20 c24 -17 30 -62 10 -82 -7 -7 -24 -12
-40 -12 -55 0 -75 80 -25 100 30 12 30 12 55 -6z m-1470 -120 c41 -28 22 -94
-28 -94 -55 0 -78 52 -40 90 24 24 38 25 68 4z m1349 -46 c22 -29 22 -48 -1
-74 -18 -22 -28 -26 -50 -20 -61 15 -50 106 13 106 16 0 33 -6 38 -12z m4887
-91 c21 -16 24 -60 6 -82 -15 -19 -50 -19 -74 -2 -38 28 -13 97 34 97 9 0 24
-6 34 -13z m-2711 -47 c39 -44 38 -110 -2 -151 -25 -24 -38 -29 -78 -29 -41 0
-54 5 -76 28 -35 36 -43 79 -23 126 29 71 126 85 179 26z m-3072 1 c31 -31 36
-59 17 -94 -17 -33 -39 -46 -79 -47 -76 0 -113 96 -55 146 38 33 80 31 117 -5z
m-615 4 c55 -38 51 -124 -5 -158 -43 -25 -78 -21 -112 12 -46 47 -39 118 16
149 28 16 77 15 101 -3z m4975 -14 c41 -41 35 -106 -11 -131 -82 -44 -163 39
-119 121 24 45 89 50 130 10z m-3619 -18 c36 -33 13 -93 -37 -93 -25 0 -55 33
-55 62 0 19 36 48 59 48 8 0 23 -7 33 -17z m1181 -13 c53 -42 39 -127 -23
-149 -58 -20 -115 24 -113 87 2 70 80 105 136 62z m585 4 c24 -17 30 -62 10
-82 -29 -29 -98 -1 -98 40 0 21 34 58 53 58 7 0 23 -7 35 -16z m-118 -163 c15
-30 12 -56 -10 -76 -46 -41 -116 29 -75 75 23 26 71 26 85 1z m3318 -87 c24
-17 30 -62 10 -82 -13 -13 -57 -16 -75 -4 -24 15 -26 59 -4 81 25 25 39 26 69
5z m-4014 -60 c22 -21 20 -50 -4 -74 -24 -24 -38 -25 -68 -4 -24 16 -28 44
-12 75 13 23 62 26 84 3z m1680 -9 c35 -32 35 -82 1 -119 -52 -56 -145 -19
-145 59 0 76 87 113 144 60z m-2729 -47 c45 -21 47 -88 3 -121 -23 -17 -31
-18 -56 -8 -57 24 -65 98 -13 126 32 18 34 18 66 3z m3290 -58 c41 -45 -18
-110 -70 -76 -27 18 -34 63 -13 84 18 18 63 14 83 -8z m210 0 c41 -45 -18
-110 -70 -76 -26 17 -32 45 -15 77 14 25 62 25 85 -1z m-2777 -102 c49 -47 17
-129 -56 -144 -26 -5 -36 -1 -62 24 -84 85 30 201 118 120z m3020 -53 c50 -59
11 -155 -64 -155 -46 0 -80 24 -94 64 -13 41 -1 76 37 106 36 28 88 22 121
-15z m926 -91 c53 -52 8 -135 -65 -119 -48 11 -67 79 -32 117 20 22 76 24 97
2z m-2456 -172 c28 -36 2 -82 -47 -82 -34 0 -51 17 -51 51 0 52 65 72 98 31z
m2220 -44 c18 -18 14 -63 -8 -83 -45 -40 -109 20 -75 71 17 26 62 33 83 12z
m-3938 -58 c11 -11 20 -27 20 -35 0 -20 -36 -55 -56 -55 -34 0 -54 20 -54 55
0 53 52 73 90 35z m-421 -34 c56 -29 67 -102 22 -147 -78 -77 -200 14 -147
110 15 26 51 50 79 51 10 0 30 -6 46 -14z m3961 -166 c24 -24 25 -38 4 -68
-28 -41 -94 -22 -94 28 0 55 52 78 90 40z m-2490 -10 c24 -24 25 -38 4 -68
-17 -24 -62 -30 -82 -10 -20 20 -14 65 10 82 30 21 44 20 68 -4z m1580 -9 c15
-30 12 -56 -10 -76 -46 -41 -116 29 -75 75 23 26 71 26 85 1z m-2788 -118 c22
-20 23 -42 2 -71 -28 -40 -94 -17 -94 34 0 48 55 70 92 37z m3331 -3 c33 -26
43 -70 23 -108 -17 -33 -34 -42 -79 -42 -39 1 -63 18 -77 54 -13 36 -3 72 27
96 33 26 73 25 106 0z m-1214 -25 c19 -18 17 -62 -4 -85 -23 -26 -60 -25 -85
0 -60 60 27 143 89 85z m-1644 -40 c54 -53 16 -145 -60 -145 -49 0 -85 36 -85
85 0 49 36 85 85 85 25 0 44 -8 60 -25z m1010 -31 c103 -49 66 -204 -49 -204
-50 0 -83 21 -102 66 -17 40 -10 79 20 113 38 42 78 50 131 25z m-775 -119
c18 -22 8 -68 -18 -81 -47 -23 -90 12 -78 62 10 40 69 51 96 19z m345 -61 c27
-11 38 -53 20 -80 -28 -43 -95 -24 -95 26 0 46 33 70 75 54z m1593 -27 c6 -5
12 -22 12 -37 0 -50 -48 -70 -86 -36 -59 50 12 121 74 73z m-807 -23 c42 -38
29 -113 -23 -140 -63 -33 -140 31 -122 102 14 56 100 79 145 38z m414 -86 c17
-51 -37 -92 -82 -63 -54 35 -5 119 53 93 13 -6 26 -19 29 -30z"/>
</g>
</svg>
